<svg xmlns="http://www.w3.org/2000/svg" xmlns:xlink="http://www.w3.org/1999/xlink" version="1.1" x="0px" y="0px" viewBox="0 0 96 120" style="enable-background:new 0 0 96 96;" xml:space="preserve"><g><g>
    <path fill="rgba(253,214,32)" d="M70,4H26C13.9,4,4,13.9,4,26v44c0,12.1,9.9,22,22,22h44c12.1,0,22-9.9,22-22V26C92,13.9,82.1,4,70,4z M88,70    c0,9.9-8.1,18-18,18H26c-9.9,0-18-8.1-18-18V26c0-9.9,8.1-18,18-18h44c9.9,0,18,8.1,18,18V70z"/>
    <path fill="rgba(253,214,32)" d="M48,26c-12.1,0-22,9.9-22,22s9.9,22,22,22s22-9.9,22-22S60.1,26,48,26z M48,66c-9.9,0-18-8.1-18-18s8.1-18,18-18    c9.9,0,18,8.1,18,18S57.9,66,48,66z"/>
    <path fill="rgba(253,214,32)" d="M74,15c-3.9,0-7,3.1-7,7s3.1,7,7,7s7-3.1,7-7S77.9,15,74,15z M74,25c-1.7,0-3-1.3-3-3s1.3-3,3-3s3,1.3,3,3S75.7,25,74,25z"/></g></g>
</svg>