<svg xmlns="http://www.w3.org/2000/svg" xmlns:xlink="http://www.w3.org/1999/xlink" version="1.1" x="0px" y="0px" viewBox="0 0 18.266 43.16125" enable-background="new 0 0 18.266 34.529" xml:space="preserve"><g><g>
    <path fill="#000000" d="M17.973,32.822c0.391,0.391,0.391,1.023,0,1.414l0,0c-0.391,0.391-1.023,0.391-1.414,0l0,0L0.293,17.972    c-0.39-0.391-0.389-1.023,0.002-1.414l0,0c0.391-0.391,1.023-0.391,1.413-0.002l0,0L17.973,32.822L17.973,32.822z"/></g><g>
    <path fill="#000000" d="M16.556,0.292c0.391-0.391,1.024-0.389,1.415,0.002l0,0c0.39,0.391,0.391,1.023,0,1.414l0,0L1.707,17.974    c-0.39,0.389-1.023,0.389-1.413-0.002l0,0c-0.391-0.391-0.392-1.023-0.002-1.414l0,0L16.556,0.292L16.556,0.292z"/></g></g>
</svg>